<svg xmlns="http://www.w3.org/2000/svg" style="width:100%;height:100%;" viewBox="0 0 111 28" preserveAspectRatio="none" width="100%" height="100%" data-fc-idx="0"><svg width="111" height="28" viewBox="-1 -1 111 28" fill="none" id="svg-1821069627_6093" style="fill: rgb(13, 13, 13) !important;">
<path d="M20.5819 8.55632H9.3375C8.90549 8.55632 8.55528 8.90653 8.55528 9.33854V12.0763C8.55528 12.5083 8.90549 12.8585 9.3375 12.8585H20.6778C21.0375 12.8585 21.3366 13.1355 21.3642 13.4941V20.583C21.3642 21.015 21.7144 21.3652 22.1464 21.3652H24.8353C25.2673 21.3652 25.6175 21.015 25.6175 20.583V13.6408C25.6175 13.2087 25.2673 12.8585 24.8353 12.8585H22.1953C21.7363 12.8585 21.3642 12.4864 21.3642 12.0274V9.33854C21.3642 8.90653 21.014 8.55632 20.5819 8.55632Z" fill="#BFF549"/>
<path d="M17.16 20.6311V17.8933C17.16 17.4613 16.8098 17.1111 16.3778 17.1111H7.28444C5.61041 17.1111 4.25333 15.754 4.25333 14.08V5.47556C4.25333 4.82754 4.77865 4.30222 5.42667 4.30222H20.5333C20.9653 4.30222 21.3156 3.95201 21.3156 3.52V0.782222C21.3156 0.350213 20.9653 0 20.5333 0H5.47556C2.45149 0 0 2.45149 0 5.47556V14.195C0 16.0622 0.741713 17.8528 2.06197 19.1731L8.55556 25.6667V22.1956C8.55556 21.7635 8.90577 21.4133 9.33778 21.4133H16.3778C16.8098 21.4133 17.16 21.0631 17.16 20.6311Z" fill="#BFF549"/>
<path d="M31.451 10.7612C31.451 8.77362 31.839 7.01315 32.6151 5.47984C33.3913 3.94652 34.4987 2.76341 35.9373 1.9305C37.376 1.07866 39.0418 0.652743 40.9348 0.652743C43.1306 0.652743 44.9668 1.24903 46.4433 2.44161C47.9388 3.63418 48.8758 5.25268 49.2544 7.2971H46.8125C46.4339 5.91522 45.724 4.84569 44.6829 4.0885C43.6417 3.31238 42.3734 2.92432 40.878 2.92432C39.515 2.92432 38.3035 3.25559 37.2435 3.91813C36.2023 4.58067 35.3978 5.50823 34.8299 6.70081C34.262 7.89338 33.9781 9.24686 33.9781 10.7612C33.9781 12.2756 34.262 13.6291 34.8299 14.8217C35.3978 16.0143 36.2023 16.9418 37.2435 17.6044C38.2846 18.2669 39.4772 18.5982 40.8212 18.5982C42.0327 18.5982 43.1117 18.371 44.0582 17.9167C45.0236 17.4435 45.7713 16.7809 46.3014 15.9291C46.8503 15.0583 47.1248 14.0456 47.1248 12.8908V12.2094H41.1619V9.9378H49.5384V20.6994H47.4939L47.2384 17.5476C46.6894 18.4373 45.866 19.2134 44.7681 19.8759C43.6701 20.5385 42.345 20.8697 40.7928 20.8697C38.9755 20.8697 37.357 20.4438 35.9373 19.592C34.5176 18.7401 33.4102 17.557 32.6151 16.0427C31.839 14.5093 31.451 12.7489 31.451 10.7612Z" fill="white"/>
<path d="M52.4934 0.823111H54.8218V20.6994H52.4934V0.823111Z" fill="white"/>
<path d="M71.6332 18.5698V20.6994H70.3554C69.4279 20.6994 68.7653 20.5101 68.3678 20.1315C67.9703 19.7529 67.7621 19.1945 67.7431 18.4562C66.6263 20.0652 65.0078 20.8697 62.8876 20.8697C61.2786 20.8697 59.9819 20.4912 58.9976 19.734C58.0322 18.9768 57.5494 17.9451 57.5494 16.6389C57.5494 15.1813 58.0416 14.0645 59.026 13.2884C60.0293 12.5123 61.4774 12.1242 63.3704 12.1242H67.6296V11.1304C67.6296 10.1839 67.3078 9.44563 66.6641 8.91559C66.0395 8.38556 65.1592 8.12054 64.0234 8.12054C63.0202 8.12054 62.1872 8.3477 61.5247 8.80201C60.8811 9.2374 60.4836 9.82422 60.3321 10.5625H58.0038C58.1741 9.14275 58.7988 8.03536 59.8778 7.24031C60.9757 6.44526 62.3955 6.04773 64.137 6.04773C65.9921 6.04773 67.4213 6.50204 68.4246 7.41067C69.4468 8.30037 69.9579 9.5876 69.9579 11.2724V17.5192C69.9579 18.2196 70.2797 18.5698 70.9233 18.5698H71.6332ZM67.6296 14.0834H63.1432C60.9852 14.0834 59.9062 14.8879 59.9062 16.497C59.9062 17.2163 60.1902 17.7937 60.758 18.229C61.3259 18.6644 62.0926 18.8821 63.058 18.8821C64.4777 18.8821 65.5946 18.513 66.4086 17.7747C67.2226 17.0175 67.6296 16.0237 67.6296 14.7933V14.0834Z" fill="white"/>
<path d="M74.6648 0.624349C75.1002 0.624349 75.4599 0.766322 75.7438 1.05027C76.0277 1.33422 76.1697 1.69388 76.1697 2.12927C76.1697 2.56465 76.0277 2.92432 75.7438 3.20826C75.4599 3.49221 75.1002 3.63418 74.6648 3.63418C74.2294 3.63418 73.8697 3.49221 73.5858 3.20826C73.3019 2.92432 73.1599 2.56465 73.1599 2.12927C73.1599 1.69388 73.3019 1.33422 73.5858 1.05027C73.8697 0.766322 74.2294 0.624349 74.6648 0.624349ZM73.5006 6.2181H75.829V20.6994H73.5006V6.2181Z" fill="white"/>
<path d="M92.1938 0.823111V20.6994H90.1778L89.8655 18.371C88.654 20.0368 86.9976 20.8697 84.8964 20.8697C83.5524 20.8697 82.3504 20.5763 81.2903 19.9895C80.2492 19.4027 79.4257 18.5508 78.82 17.434C78.2331 16.3171 77.9397 14.9921 77.9397 13.4587C77.9397 12.0011 78.2331 10.7139 78.82 9.59706C79.4257 8.48021 80.2586 7.60944 81.3187 6.98476C82.3788 6.36007 83.5713 6.04773 84.8964 6.04773C86.0701 6.04773 87.0733 6.26542 87.9063 6.70081C88.7392 7.11726 89.3922 7.69462 89.8655 8.43288V0.823111H92.1938ZM85.1236 18.7969C86.0511 18.7969 86.8746 18.5792 87.5939 18.1439C88.3322 17.6895 88.9001 17.0649 89.2976 16.2698C89.6951 15.4558 89.8939 14.5377 89.8939 13.5155C89.8939 12.4744 89.6951 11.5468 89.2976 10.7329C88.9001 9.89994 88.3322 9.25633 87.5939 8.80201C86.8746 8.3477 86.0511 8.12054 85.1236 8.12054C83.6849 8.12054 82.5207 8.62218 81.631 9.62546C80.7603 10.6098 80.3249 11.8876 80.3249 13.4587C80.3249 15.0299 80.7603 16.3171 81.631 17.3204C82.5207 18.3048 83.6849 18.7969 85.1236 18.7969Z" fill="white"/>
<path d="M101.47 20.8697C100.07 20.8697 98.8203 20.5574 97.7224 19.9327C96.6434 19.308 95.801 18.4373 95.1952 17.3204C94.5895 16.2036 94.2866 14.9163 94.2866 13.4587C94.2866 12.0011 94.5895 10.7139 95.1952 9.59706C95.801 8.48021 96.6434 7.60944 97.7224 6.98476C98.8203 6.36007 100.07 6.04773 101.47 6.04773C102.871 6.04773 104.111 6.36007 105.19 6.98476C106.288 7.60944 107.14 8.48021 107.746 9.59706C108.351 10.7139 108.654 12.0011 108.654 13.4587C108.654 14.9163 108.351 16.2036 107.746 17.3204C107.14 18.4373 106.288 19.308 105.19 19.9327C104.111 20.5574 102.871 20.8697 101.47 20.8697ZM101.47 18.7969C102.417 18.7969 103.25 18.5698 103.969 18.1155C104.707 17.6611 105.275 17.027 105.673 16.213C106.07 15.399 106.269 14.4809 106.269 13.4587C106.269 12.4365 106.07 11.5184 105.673 10.7045C105.275 9.89048 104.707 9.25633 103.969 8.80201C103.25 8.3477 102.417 8.12054 101.47 8.12054C100.524 8.12054 99.6816 8.3477 98.9433 8.80201C98.224 9.25633 97.6656 9.89048 97.2681 10.7045C96.8705 11.5184 96.6718 12.4365 96.6718 13.4587C96.6718 14.4809 96.8705 15.399 97.2681 16.213C97.6656 17.027 98.224 17.6611 98.9433 18.1155C99.6816 18.5698 100.524 18.7969 101.47 18.7969Z" fill="white"/>
</svg></svg>